<svg width="424" height="399" viewBox="0 0 924 899" fill="none" xmlns="http://www.w3.org/2000/svg">
    <path d="M719.311 77.2063C780.109 123.57 818.336 196.237 853.571 269.783C888.636 343.314 920.54 417.708 923.079 494.716C925.449 571.708 898.129 651.121 848.108 712.297C798.071 773.635 725.348 816.574 648.182 849.785C571.016 882.995 489.408 906.476 412.846 896.521C336.114 886.55 264.413 843.304 199.893 794.48C135.558 745.508 78.5606 691.135 44.343 625.375C10.1108 559.777 -1.51123 482.776 0.69876 404.392C2.73875 325.993 18.2708 246.181 59.7038 179.489C101.151 112.636 168.131 59.1967 244.593 30.0164C320.886 0.820969 406.322 -4.14636 490.81 3.40731C575.298 10.961 658.498 31.0052 719.311 77.2063Z" fill="url(#paint0_radial_32_52)"/>
    <defs>
        <radialGradient id="paint0_radial_32_52" cx="0" cy="0" r="1" gradientUnits="userSpaceOnUse" gradientTransform="translate(462.205 451) rotate(95.109) scale(448.362 465.126)">
            <stop stop-color="#96C0FF" stop-opacity="0.59"/>
            <stop offset="0.9999" stop-color="#DCF0FF" stop-opacity="0.32"/>
        </radialGradient>
    </defs>
</svg>
