<svg width="206" height="172" viewBox="0 0 206 172" fill="none" xmlns="http://www.w3.org/2000/svg">
<circle cx="1.5" cy="5" r="1.5" fill="#6AB8FF" fill-opacity="0.25"/>
<circle cx="13" cy="5" r="2" fill="#6AB8FF" fill-opacity="0.26"/>
<circle cx="25.5" cy="5" r="2.5" fill="#6AB8FF" fill-opacity="0.29"/>
<circle cx="39" cy="5" r="3" fill="#6AB8FF" fill-opacity="0.3"/>
<circle cx="53.5" cy="5" r="3.5" fill="#6AB8FF" fill-opacity="0.4"/>
<circle cx="69" cy="5" r="4" fill="#6AB8FF" fill-opacity="0.6"/>
<circle cx="85.5" cy="5" r="4.5" fill="#6AB8FF" fill-opacity="0.81"/>
<circle cx="103" cy="5" r="5" fill="#6AB8FF"/>
<circle cx="120.5" cy="5" r="4.5" fill="#6AB8FF" fill-opacity="0.81"/>
<circle cx="137" cy="5" r="4" fill="#6AB8FF" fill-opacity="0.6"/>
<circle cx="152.5" cy="5" r="3.5" fill="#6AB8FF" fill-opacity="0.4"/>
<circle cx="167" cy="5" r="3" fill="#6AB8FF" fill-opacity="0.3"/>
<circle cx="180.5" cy="5" r="2.5" fill="#6AB8FF" fill-opacity="0.29"/>
<circle cx="193" cy="5" r="2" fill="#6AB8FF" fill-opacity="0.26"/>
<circle cx="204.5" cy="5" r="1.5" fill="#6AB8FF" fill-opacity="0.25"/>
<circle cx="1.5" cy="23" r="1.5" fill="#6AB8FF" fill-opacity="0.25"/>
<circle cx="13" cy="23" r="2" fill="#6AB8FF" fill-opacity="0.26"/>
<circle cx="25.5" cy="23" r="2.5" fill="#6AB8FF" fill-opacity="0.29"/>
<circle cx="39" cy="23" r="3" fill="#6AB8FF" fill-opacity="0.3"/>
<circle cx="53.5" cy="23" r="3.5" fill="#6AB8FF" fill-opacity="0.4"/>
<circle cx="69" cy="23" r="4" fill="#6AB8FF" fill-opacity="0.6"/>
<circle cx="85.5" cy="23" r="4.5" fill="#6AB8FF" fill-opacity="0.81"/>
<circle cx="103" cy="23" r="5" fill="#6AB8FF"/>
<circle cx="120.5" cy="23" r="4.5" fill="#6AB8FF" fill-opacity="0.81"/>
<circle cx="137" cy="23" r="4" fill="#6AB8FF" fill-opacity="0.6"/>
<circle cx="152.5" cy="23" r="3.5" fill="#6AB8FF" fill-opacity="0.4"/>
<circle cx="167" cy="23" r="3" fill="#6AB8FF" fill-opacity="0.3"/>
<circle cx="180.5" cy="23" r="2.5" fill="#6AB8FF" fill-opacity="0.29"/>
<circle cx="193" cy="23" r="2" fill="#6AB8FF" fill-opacity="0.26"/>
<circle cx="204.5" cy="23" r="1.5" fill="#6AB8FF" fill-opacity="0.25"/>
<circle cx="1.5" cy="41" r="1.5" fill="#6AB8FF" fill-opacity="0.25"/>
<circle cx="13" cy="41" r="2" fill="#6AB8FF" fill-opacity="0.26"/>
<circle cx="25.5" cy="41" r="2.5" fill="#6AB8FF" fill-opacity="0.29"/>
<circle cx="39" cy="41" r="3" fill="#6AB8FF" fill-opacity="0.3"/>
<circle cx="53.5" cy="41" r="3.5" fill="#6AB8FF" fill-opacity="0.4"/>
<circle cx="69" cy="41" r="4" fill="#6AB8FF" fill-opacity="0.6"/>
<circle cx="85.5" cy="41" r="4.5" fill="#6AB8FF" fill-opacity="0.81"/>
<circle cx="103" cy="41" r="5" fill="#6AB8FF"/>
<circle cx="120.5" cy="41" r="4.5" fill="#6AB8FF" fill-opacity="0.81"/>
<circle cx="137" cy="41" r="4" fill="#6AB8FF" fill-opacity="0.6"/>
<circle cx="152.5" cy="41" r="3.5" fill="#6AB8FF" fill-opacity="0.4"/>
<circle cx="167" cy="41" r="3" fill="#6AB8FF" fill-opacity="0.3"/>
<circle cx="180.5" cy="41" r="2.5" fill="#6AB8FF" fill-opacity="0.29"/>
<circle cx="193" cy="41" r="2" fill="#6AB8FF" fill-opacity="0.26"/>
<circle cx="204.5" cy="41" r="1.5" fill="#6AB8FF" fill-opacity="0.25"/>
<circle cx="1.5" cy="59" r="1.5" fill="#6AB8FF" fill-opacity="0.25"/>
<circle cx="13" cy="59" r="2" fill="#6AB8FF" fill-opacity="0.26"/>
<circle cx="25.5" cy="59" r="2.5" fill="#6AB8FF" fill-opacity="0.29"/>
<circle cx="39" cy="59" r="3" fill="#6AB8FF" fill-opacity="0.3"/>
<circle cx="53.5" cy="59" r="3.5" fill="#6AB8FF" fill-opacity="0.4"/>
<circle cx="69" cy="59" r="4" fill="#6AB8FF" fill-opacity="0.6"/>
<circle cx="85.5" cy="59" r="4.5" fill="#6AB8FF" fill-opacity="0.81"/>
<circle cx="103" cy="59" r="5" fill="#6AB8FF"/>
<circle cx="120.5" cy="59" r="4.5" fill="#6AB8FF" fill-opacity="0.81"/>
<circle cx="137" cy="59" r="4" fill="#6AB8FF" fill-opacity="0.6"/>
<circle cx="152.5" cy="59" r="3.5" fill="#6AB8FF" fill-opacity="0.4"/>
<circle cx="167" cy="59" r="3" fill="#6AB8FF" fill-opacity="0.3"/>
<circle cx="180.5" cy="59" r="2.5" fill="#6AB8FF" fill-opacity="0.29"/>
<circle cx="193" cy="59" r="2" fill="#6AB8FF" fill-opacity="0.26"/>
<circle cx="204.5" cy="59" r="1.5" fill="#6AB8FF" fill-opacity="0.25"/>
<circle cx="1.5" cy="77" r="1.5" fill="#6AB8FF" fill-opacity="0.25"/>
<circle cx="13" cy="77" r="2" fill="#6AB8FF" fill-opacity="0.26"/>
<circle cx="25.5" cy="77" r="2.5" fill="#6AB8FF" fill-opacity="0.29"/>
<circle cx="39" cy="77" r="3" fill="#6AB8FF" fill-opacity="0.3"/>
<circle cx="53.5" cy="77" r="3.5" fill="#6AB8FF" fill-opacity="0.4"/>
<circle cx="69" cy="77" r="4" fill="#6AB8FF" fill-opacity="0.6"/>
<circle cx="85.5" cy="77" r="4.5" fill="#6AB8FF" fill-opacity="0.81"/>
<circle cx="103" cy="77" r="5" fill="#6AB8FF"/>
<circle cx="120.5" cy="77" r="4.5" fill="#6AB8FF" fill-opacity="0.81"/>
<circle cx="137" cy="77" r="4" fill="#6AB8FF" fill-opacity="0.6"/>
<circle cx="152.5" cy="77" r="3.5" fill="#6AB8FF" fill-opacity="0.4"/>
<circle cx="167" cy="77" r="3" fill="#6AB8FF" fill-opacity="0.3"/>
<circle cx="180.5" cy="77" r="2.5" fill="#6AB8FF" fill-opacity="0.29"/>
<circle cx="193" cy="77" r="2" fill="#6AB8FF" fill-opacity="0.26"/>
<circle cx="204.5" cy="77" r="1.5" fill="#6AB8FF" fill-opacity="0.25"/>
<circle cx="1.5" cy="95" r="1.5" fill="#6AB8FF" fill-opacity="0.25"/>
<circle cx="13" cy="95" r="2" fill="#6AB8FF" fill-opacity="0.26"/>
<circle cx="25.5" cy="95" r="2.5" fill="#6AB8FF" fill-opacity="0.29"/>
<circle cx="39" cy="95" r="3" fill="#6AB8FF" fill-opacity="0.3"/>
<circle cx="53.5" cy="95" r="3.5" fill="#6AB8FF" fill-opacity="0.4"/>
<circle cx="69" cy="95" r="4" fill="#6AB8FF" fill-opacity="0.6"/>
<circle cx="85.5" cy="95" r="4.5" fill="#6AB8FF" fill-opacity="0.81"/>
<circle cx="103" cy="95" r="5" fill="#6AB8FF"/>
<circle cx="120.5" cy="95" r="4.5" fill="#6AB8FF" fill-opacity="0.81"/>
<circle cx="137" cy="95" r="4" fill="#6AB8FF" fill-opacity="0.6"/>
<circle cx="152.5" cy="95" r="3.5" fill="#6AB8FF" fill-opacity="0.4"/>
<circle cx="167" cy="95" r="3" fill="#6AB8FF" fill-opacity="0.3"/>
<circle cx="180.5" cy="95" r="2.5" fill="#6AB8FF" fill-opacity="0.29"/>
<circle cx="193" cy="95" r="2" fill="#6AB8FF" fill-opacity="0.26"/>
<circle cx="204.5" cy="95" r="1.5" fill="#6AB8FF" fill-opacity="0.25"/>
<circle cx="1.5" cy="113" r="1.5" fill="#6AB8FF" fill-opacity="0.25"/>
<circle cx="13" cy="113" r="2" fill="#6AB8FF" fill-opacity="0.26"/>
<circle cx="25.5" cy="113" r="2.5" fill="#6AB8FF" fill-opacity="0.29"/>
<circle cx="39" cy="113" r="3" fill="#6AB8FF" fill-opacity="0.3"/>
<circle cx="53.5" cy="113" r="3.5" fill="#6AB8FF" fill-opacity="0.4"/>
<circle cx="69" cy="113" r="4" fill="#6AB8FF" fill-opacity="0.6"/>
<circle cx="85.5" cy="113" r="4.5" fill="#6AB8FF" fill-opacity="0.81"/>
<circle cx="103" cy="113" r="5" fill="#6AB8FF"/>
<circle cx="120.5" cy="113" r="4.5" fill="#6AB8FF" fill-opacity="0.81"/>
<circle cx="137" cy="113" r="4" fill="#6AB8FF" fill-opacity="0.6"/>
<circle cx="152.5" cy="113" r="3.5" fill="#6AB8FF" fill-opacity="0.4"/>
<circle cx="167" cy="113" r="3" fill="#6AB8FF" fill-opacity="0.3"/>
<circle cx="180.5" cy="113" r="2.5" fill="#6AB8FF" fill-opacity="0.29"/>
<circle cx="193" cy="113" r="2" fill="#6AB8FF" fill-opacity="0.26"/>
<circle cx="204.5" cy="113" r="1.5" fill="#6AB8FF" fill-opacity="0.25"/>
<circle cx="1.5" cy="131" r="1.5" fill="#6AB8FF" fill-opacity="0.25"/>
<circle cx="13" cy="131" r="2" fill="#6AB8FF" fill-opacity="0.26"/>
<circle cx="25.5" cy="131" r="2.5" fill="#6AB8FF" fill-opacity="0.29"/>
<circle cx="39" cy="131" r="3" fill="#6AB8FF" fill-opacity="0.3"/>
<circle cx="53.5" cy="131" r="3.5" fill="#6AB8FF" fill-opacity="0.4"/>
<circle cx="69" cy="131" r="4" fill="#6AB8FF" fill-opacity="0.6"/>
<circle cx="85.5" cy="131" r="4.5" fill="#6AB8FF" fill-opacity="0.81"/>
<circle cx="103" cy="131" r="5" fill="#6AB8FF"/>
<circle cx="120.5" cy="131" r="4.5" fill="#6AB8FF" fill-opacity="0.81"/>
<circle cx="137" cy="131" r="4" fill="#6AB8FF" fill-opacity="0.6"/>
<circle cx="152.5" cy="131" r="3.5" fill="#6AB8FF" fill-opacity="0.4"/>
<circle cx="167" cy="131" r="3" fill="#6AB8FF" fill-opacity="0.3"/>
<circle cx="180.5" cy="131" r="2.5" fill="#6AB8FF" fill-opacity="0.29"/>
<circle cx="193" cy="131" r="2" fill="#6AB8FF" fill-opacity="0.26"/>
<circle cx="204.5" cy="131" r="1.5" fill="#6AB8FF" fill-opacity="0.25"/>
<circle cx="1.5" cy="149" r="1.5" fill="#6AB8FF" fill-opacity="0.25"/>
<circle cx="13" cy="149" r="2" fill="#6AB8FF" fill-opacity="0.26"/>
<circle cx="25.5" cy="149" r="2.5" fill="#6AB8FF" fill-opacity="0.29"/>
<circle cx="39" cy="149" r="3" fill="#6AB8FF" fill-opacity="0.3"/>
<circle cx="53.5" cy="149" r="3.5" fill="#6AB8FF" fill-opacity="0.4"/>
<circle cx="69" cy="149" r="4" fill="#6AB8FF" fill-opacity="0.6"/>
<circle cx="85.5" cy="149" r="4.5" fill="#6AB8FF" fill-opacity="0.81"/>
<circle cx="103" cy="149" r="5" fill="#6AB8FF"/>
<circle cx="120.5" cy="149" r="4.5" fill="#6AB8FF" fill-opacity="0.81"/>
<circle cx="137" cy="149" r="4" fill="#6AB8FF" fill-opacity="0.6"/>
<circle cx="152.5" cy="149" r="3.5" fill="#6AB8FF" fill-opacity="0.4"/>
<circle cx="167" cy="149" r="3" fill="#6AB8FF" fill-opacity="0.3"/>
<circle cx="180.5" cy="149" r="2.5" fill="#6AB8FF" fill-opacity="0.29"/>
<circle cx="193" cy="149" r="2" fill="#6AB8FF" fill-opacity="0.26"/>
<circle cx="204.5" cy="149" r="1.5" fill="#6AB8FF" fill-opacity="0.25"/>
<circle cx="1.5" cy="167" r="1.5" fill="#6AB8FF" fill-opacity="0.25"/>
<circle cx="13" cy="167" r="2" fill="#6AB8FF" fill-opacity="0.26"/>
<circle cx="25.5" cy="167" r="2.5" fill="#6AB8FF" fill-opacity="0.29"/>
<circle cx="39" cy="167" r="3" fill="#6AB8FF" fill-opacity="0.3"/>
<circle cx="53.5" cy="167" r="3.5" fill="#6AB8FF" fill-opacity="0.4"/>
<circle cx="69" cy="167" r="4" fill="#6AB8FF" fill-opacity="0.6"/>
<circle cx="85.5" cy="167" r="4.5" fill="#6AB8FF" fill-opacity="0.81"/>
<circle cx="103" cy="167" r="5" fill="#6AB8FF"/>
<circle cx="120.5" cy="167" r="4.5" fill="#6AB8FF" fill-opacity="0.81"/>
<circle cx="137" cy="167" r="4" fill="#6AB8FF" fill-opacity="0.6"/>
<circle cx="152.5" cy="167" r="3.5" fill="#6AB8FF" fill-opacity="0.4"/>
<circle cx="167" cy="167" r="3" fill="#6AB8FF" fill-opacity="0.3"/>
<circle cx="180.5" cy="167" r="2.5" fill="#6AB8FF" fill-opacity="0.29"/>
<circle cx="193" cy="167" r="2" fill="#6AB8FF" fill-opacity="0.26"/>
<circle cx="204.5" cy="167" r="1.5" fill="#6AB8FF" fill-opacity="0.25"/>
</svg>
