<svg id="visual" viewBox="0 0 960 540" width="960" height="540" xmlns="http://www.w3.org/2000/svg" xmlns:xlink="http://www.w3.org/1999/xlink" version="1.1"><path d="M0 353L22.8 356.5C45.7 360 91.3 367 137 360.7C182.7 354.3 228.3 334.7 274 333.3C319.7 332 365.3 349 411.2 357.2C457 365.3 503 364.7 548.8 357C594.7 349.3 640.3 334.7 686 328.5C731.7 322.3 777.3 324.7 823 332.7C868.7 340.7 914.3 354.3 937.2 361.2L960 368L960 541L937.2 541C914.3 541 868.7 541 823 541C777.3 541 731.7 541 686 541C640.3 541 594.7 541 548.8 541C503 541 457 541 411.2 541C365.3 541 319.7 541 274 541C228.3 541 182.7 541 137 541C91.3 541 45.7 541 22.8 541L0 541Z" fill="#1a97dc"></path><path d="M0 415L22.8 406.2C45.7 397.3 91.3 379.7 137 377.7C182.7 375.7 228.3 389.3 274 394.2C319.7 399 365.3 395 411.2 390C457 385 503 379 548.8 374.3C594.7 369.7 640.3 366.3 686 367.5C731.7 368.7 777.3 374.3 823 376.8C868.7 379.3 914.3 378.7 937.2 378.3L960 378L960 541L937.2 541C914.3 541 868.7 541 823 541C777.3 541 731.7 541 686 541C640.3 541 594.7 541 548.8 541C503 541 457 541 411.2 541C365.3 541 319.7 541 274 541C228.3 541 182.7 541 137 541C91.3 541 45.7 541 22.8 541L0 541Z" fill="#71b0e5"></path><path d="M0 408L22.8 414.5C45.7 421 91.3 434 137 435.8C182.7 437.7 228.3 428.3 274 428.3C319.7 428.3 365.3 437.7 411.2 443.3C457 449 503 451 548.8 448.7C594.7 446.3 640.3 439.7 686 433.2C731.7 426.7 777.3 420.3 823 414.3C868.7 408.3 914.3 402.7 937.2 399.8L960 397L960 541L937.2 541C914.3 541 868.7 541 823 541C777.3 541 731.7 541 686 541C640.3 541 594.7 541 548.8 541C503 541 457 541 411.2 541C365.3 541 319.7 541 274 541C228.3 541 182.7 541 137 541C91.3 541 45.7 541 22.8 541L0 541Z" fill="#a5caee"></path><path d="M0 465L22.8 468.3C45.7 471.7 91.3 478.3 137 481.5C182.7 484.7 228.3 484.3 274 477.7C319.7 471 365.3 458 411.2 451.8C457 445.7 503 446.3 548.8 450.2C594.7 454 640.3 461 686 460.5C731.7 460 777.3 452 823 448.3C868.7 444.7 914.3 445.3 937.2 445.7L960 446L960 541L937.2 541C914.3 541 868.7 541 823 541C777.3 541 731.7 541 686 541C640.3 541 594.7 541 548.8 541C503 541 457 541 411.2 541C365.3 541 319.7 541 274 541C228.3 541 182.7 541 137 541C91.3 541 45.7 541 22.8 541L0 541Z" fill="#d3e4f7"></path><path d="M0 497L22.8 497.2C45.7 497.3 91.3 497.7 137 496.3C182.7 495 228.3 492 274 492.2C319.7 492.3 365.3 495.7 411.2 495.7C457 495.7 503 492.3 548.8 489.3C594.7 486.3 640.3 483.7 686 487.8C731.7 492 777.3 503 823 503.8C868.7 504.7 914.3 495.3 937.2 490.7L960 486L960 541L937.2 541C914.3 541 868.7 541 823 541C777.3 541 731.7 541 686 541C640.3 541 594.7 541 548.8 541C503 541 457 541 411.2 541C365.3 541 319.7 541 274 541C228.3 541 182.7 541 137 541C91.3 541 45.7 541 22.8 541L0 541Z" fill="#ffffff"></path></svg>