<svg id="visual" viewBox="0 0 1500 800" width="1500" height="800" xmlns="http://www.w3.org/2000/svg" xmlns:xlink="http://www.w3.org/1999/xlink" version="1.1"><g stroke-width="1" stroke-linejoin="bevel"><path d="M799.3 303L865.3 156L678.7 169Z" fill="#353ab2" stroke="#353ab2"></path><path d="M678.7 169L637.7 294L799.3 303Z" fill="#2959c9" stroke="#2959c9"></path><path d="M865.3 156L819.3 0L678.7 169Z" fill="#2675db" stroke="#2675db"></path><path d="M799.3 303L997 195L865.3 156Z" fill="#2667d2" stroke="#2667d2"></path><path d="M865.3 156L1020 0L819.3 0Z" fill="#409ef1" stroke="#409ef1"></path><path d="M819.3 0L643.7 0L678.7 169Z" fill="#353ab2" stroke="#353ab2"></path><path d="M678.7 169L510 171L637.7 294Z" fill="#409ef1" stroke="#409ef1"></path><path d="M800.3 499L1004 327L799.3 303Z" fill="#2b83e3" stroke="#2b83e3"></path><path d="M799.3 303L1004 327L997 195Z" fill="#2675db" stroke="#2675db"></path><path d="M643.7 0L510 171L678.7 169Z" fill="#5eb8fd" stroke="#5eb8fd"></path><path d="M510 171L517 328L637.7 294Z" fill="#2b83e3" stroke="#2b83e3"></path><path d="M637.7 294L624.7 450L799.3 303Z" fill="#3490ea" stroke="#3490ea"></path><path d="M517 328L624.7 450L637.7 294Z" fill="#2b83e3" stroke="#2b83e3"></path><path d="M624.7 450L800.3 499L799.3 303Z" fill="#3b29a6" stroke="#3b29a6"></path><path d="M1127.7 202L1020 0L997 195Z" fill="#4fabf7" stroke="#4fabf7"></path><path d="M997 195L1020 0L865.3 156Z" fill="#5eb8fd" stroke="#5eb8fd"></path><path d="M643.7 0L506 0L510 171Z" fill="#2675db" stroke="#2675db"></path><path d="M1134.7 285L1127.7 202L997 195Z" fill="#4fabf7" stroke="#4fabf7"></path><path d="M358.3 294L514 457L517 328Z" fill="#3490ea" stroke="#3490ea"></path><path d="M517 328L514 457L624.7 450Z" fill="#3b29a6" stroke="#3b29a6"></path><path d="M627.7 616L825.3 603L800.3 499Z" fill="#2f4abe" stroke="#2f4abe"></path><path d="M358.3 294L517 328L510 171Z" fill="#2f4abe" stroke="#2f4abe"></path><path d="M800.3 499L1028 465L1004 327Z" fill="#409ef1" stroke="#409ef1"></path><path d="M1004 327L1134.7 285L997 195Z" fill="#3b29a6" stroke="#3b29a6"></path><path d="M1028 465L1134.7 285L1004 327Z" fill="#353ab2" stroke="#353ab2"></path><path d="M800.3 499L958 616L1028 465Z" fill="#3b29a6" stroke="#3b29a6"></path><path d="M627.7 616L800.3 499L624.7 450Z" fill="#3b29a6" stroke="#3b29a6"></path><path d="M329.3 176L358.3 294L510 171Z" fill="#2b83e3" stroke="#2b83e3"></path><path d="M1361.3 186L1159.7 0L1127.7 202Z" fill="#3490ea" stroke="#3490ea"></path><path d="M1127.7 202L1159.7 0L1020 0Z" fill="#2675db" stroke="#2675db"></path><path d="M462 677L627.7 616L514 457Z" fill="#3490ea" stroke="#3490ea"></path><path d="M514 457L627.7 616L624.7 450Z" fill="#2667d2" stroke="#2667d2"></path><path d="M353.3 0L329.3 176L510 171Z" fill="#353ab2" stroke="#353ab2"></path><path d="M795.3 800L958 616L825.3 603Z" fill="#2667d2" stroke="#2667d2"></path><path d="M825.3 603L958 616L800.3 499Z" fill="#3490ea" stroke="#3490ea"></path><path d="M1028 465L1160.7 504L1134.7 285Z" fill="#2f4abe" stroke="#2f4abe"></path><path d="M506 0L353.3 0L510 171Z" fill="#409ef1" stroke="#409ef1"></path><path d="M1137.7 667L1160.7 504L1028 465Z" fill="#2675db" stroke="#2675db"></path><path d="M1134.7 285L1361.3 186L1127.7 202Z" fill="#353ab2" stroke="#353ab2"></path><path d="M189.7 315L308.3 476L358.3 294Z" fill="#2f4abe" stroke="#2f4abe"></path><path d="M358.3 294L308.3 476L514 457Z" fill="#5eb8fd" stroke="#5eb8fd"></path><path d="M1160.7 504L1312.3 349L1134.7 285Z" fill="#4fabf7" stroke="#4fabf7"></path><path d="M318.3 616L462 677L514 457Z" fill="#2675db" stroke="#2675db"></path><path d="M627.7 616L795.3 800L825.3 603Z" fill="#2667d2" stroke="#2667d2"></path><path d="M1312.3 349L1361.3 186L1134.7 285Z" fill="#2667d2" stroke="#2667d2"></path><path d="M1025 800L1137.7 667L958 616Z" fill="#4fabf7" stroke="#4fabf7"></path><path d="M958 616L1137.7 667L1028 465Z" fill="#3b29a6" stroke="#3b29a6"></path><path d="M1160.7 504L1370.3 513L1312.3 349Z" fill="#2667d2" stroke="#2667d2"></path><path d="M329.3 176L189.7 315L358.3 294Z" fill="#2b83e3" stroke="#2b83e3"></path><path d="M143.7 169L189.7 315L329.3 176Z" fill="#2675db" stroke="#2675db"></path><path d="M647.7 800L795.3 800L627.7 616Z" fill="#2f4abe" stroke="#2f4abe"></path><path d="M1361.3 186L1340.3 0L1159.7 0Z" fill="#353ab2" stroke="#353ab2"></path><path d="M462 677L647.7 800L627.7 616Z" fill="#353ab2" stroke="#353ab2"></path><path d="M141.7 490L318.3 616L308.3 476Z" fill="#2959c9" stroke="#2959c9"></path><path d="M308.3 476L318.3 616L514 457Z" fill="#2959c9" stroke="#2959c9"></path><path d="M462 677L473 800L647.7 800Z" fill="#353ab2" stroke="#353ab2"></path><path d="M353.3 0L177.7 0L329.3 176Z" fill="#5eb8fd" stroke="#5eb8fd"></path><path d="M177.7 0L143.7 169L329.3 176Z" fill="#2667d2" stroke="#2667d2"></path><path d="M795.3 800L1025 800L958 616Z" fill="#2f4abe" stroke="#2f4abe"></path><path d="M361.3 800L473 800L462 677Z" fill="#4fabf7" stroke="#4fabf7"></path><path d="M1358.3 629L1370.3 513L1160.7 504Z" fill="#2f4abe" stroke="#2f4abe"></path><path d="M1500 360L1500 120L1361.3 186Z" fill="#3490ea" stroke="#3490ea"></path><path d="M1358.3 629L1160.7 504L1137.7 667Z" fill="#5eb8fd" stroke="#5eb8fd"></path><path d="M189.7 315L141.7 490L308.3 476Z" fill="#2667d2" stroke="#2667d2"></path><path d="M318.3 616L361.3 800L462 677Z" fill="#2959c9" stroke="#2959c9"></path><path d="M0 323L141.7 490L189.7 315Z" fill="#409ef1" stroke="#409ef1"></path><path d="M1025 800L1160.7 800L1137.7 667Z" fill="#4fabf7" stroke="#4fabf7"></path><path d="M1348.3 800L1358.3 629L1137.7 667Z" fill="#2f4abe" stroke="#2f4abe"></path><path d="M194.7 800L361.3 800L318.3 616Z" fill="#2959c9" stroke="#2959c9"></path><path d="M1500 360L1361.3 186L1312.3 349Z" fill="#5eb8fd" stroke="#5eb8fd"></path><path d="M1361.3 186L1500 120L1340.3 0Z" fill="#5eb8fd" stroke="#5eb8fd"></path><path d="M1500 360L1312.3 349L1500 444Z" fill="#4fabf7" stroke="#4fabf7"></path><path d="M1500 444L1312.3 349L1370.3 513Z" fill="#409ef1" stroke="#409ef1"></path><path d="M1500 120L1500 0L1340.3 0Z" fill="#2675db" stroke="#2675db"></path><path d="M0 611L134.7 613L141.7 490Z" fill="#2667d2" stroke="#2667d2"></path><path d="M141.7 490L134.7 613L318.3 616Z" fill="#2b83e3" stroke="#2b83e3"></path><path d="M1500 626L1500 444L1370.3 513Z" fill="#5eb8fd" stroke="#5eb8fd"></path><path d="M0 0L0 184L143.7 169Z" fill="#5eb8fd" stroke="#5eb8fd"></path><path d="M143.7 169L0 323L189.7 315Z" fill="#2959c9" stroke="#2959c9"></path><path d="M0 184L0 323L143.7 169Z" fill="#409ef1" stroke="#409ef1"></path><path d="M177.7 0L0 0L143.7 169Z" fill="#2b83e3" stroke="#2b83e3"></path><path d="M0 323L0 468L141.7 490Z" fill="#5eb8fd" stroke="#5eb8fd"></path><path d="M1160.7 800L1348.3 800L1137.7 667Z" fill="#3b29a6" stroke="#3b29a6"></path><path d="M1358.3 629L1500 626L1370.3 513Z" fill="#353ab2" stroke="#353ab2"></path><path d="M134.7 613L194.7 800L318.3 616Z" fill="#353ab2" stroke="#353ab2"></path><path d="M0 800L194.7 800L134.7 613Z" fill="#2b83e3" stroke="#2b83e3"></path><path d="M1500 800L1500 626L1358.3 629Z" fill="#2959c9" stroke="#2959c9"></path><path d="M0 468L0 611L141.7 490Z" fill="#2667d2" stroke="#2667d2"></path><path d="M1348.3 800L1500 800L1358.3 629Z" fill="#2667d2" stroke="#2667d2"></path><path d="M0 611L0 800L134.7 613Z" fill="#2675db" stroke="#2675db"></path></g></svg>